Jonah Hex (2010) [BDRip720p-Ita.Eng.Spa.Fre.Ger.Jap][Nautilus-BT]

Join www.nautilus-bt.org


[color=#008080]Nel vecchio e selvaggio West durante la Guerra Civile americana, un cacciatore di taglie è sulle tracce di un suo vecchio compagno d'armi che ha ucciso la sua famiglia. Assetato di vendetta scopre che colui che sta cercando vuole distruggere l'America durante il centesimo anniversario e farà di tutto per fermarlo ed ucciderlo.[/color]

Fonte: [url=http://it.wikipedia.org/wiki/Jonah_Hex_%28film%29]wikipedia[/url]









Titolo italiano : Jonah Hex
Titolo originale : Jonah Hex
Anno : 2010
Genere : azione - western - thriller
Paese : USA
Sceneggiatura : Mark Neveldine, Brian Taylor
Regia : Jimmy Hayward
Scenografia : Tom Meyer
Casa di produzione : Legendary Pictures, DC Comics, Mad Chance, Weed Road Pictures

Lingue : Ita-Eng-Spa-Fre-Ger-Jap
Sottotitoli : guarda AVInaptic
Cartelli : guarda AVInaptic
Capitoli : presenti

Link IMDb : http://www.imdb.com/title/tt1075747/

[code]
General
Complete name                    : Jonah Hex (2010) [BDRip720p] [MultiLang - MultiSub] by Pitt@Sk8.mkv
Format                           : Matroska
File size                        : 4.38 GiB
Duration                         : 1h 21mn
Overall bit rate                 : 7 693 Kbps
Encoded date                     : UTC 2011-03-10 18:15:17
Writing application              : mkvmerge v4.4.0 ('Die Wiederkehr') built on Oct 31 2010 21:52:48
Writing library                  : libebml v1.0.0 + libmatroska v1.0.0

Video
ID                               : 1
Format                           : AVC
Format/Info                      : Advanced Video Codec
Format profile                   : High@L4.1
Format settings, CABAC           : Yes
Format settings, ReFrames        : 3 frames
Codec ID                         : V_MPEG4/ISO/AVC
Duration                         : 1h 21mn
Bit rate mode                    : Variable
Bit rate                         : 4 989 Kbps
Maximum bit rate                 : 40.0 Mbps
Width                            : 1 280 pixels
Height                           : 534 pixels
Display aspect ratio             : 2.35:1
Frame rate                       : 23.976 fps
Color space                      : YUV
Chroma subsampling               : 4:2:0
Bit depth                        : 8 bits
Scan type                        : Progressive
Bits/(Pixel*Frame)               : 0.304
Stream size                      : 2.76 GiB (63%)
Title                            : BDRip720p by Pitt@Sk8
Writing library                  : x264 core 112 r1867 22bfd31
Encoding settings                : cabac=1 / ref=3 / deblock=1:0:0 / analyse=0x3:0x133 / me=hex / subme=7 / psy=1 / psy_rd=1.00:0.00 / mixed_ref=1 / me_range=16 / chroma_me=1 / trellis=1 / 8x8dct=1 / cqm=0 / deadzone=21,11 / fast_pskip=1 / chroma_qp_offset=-2 / threads=6 / sliced_threads=0 / slices=4 / nr=0 / decimate=1 / interlaced=0 / constrained_intra=0 / bframes=3 / b_pyramid=1 / b_adapt=1 / b_bias=0 / direct=1 / weightb=1 / open_gop=2 / weightp=2 / keyint=240 / keyint_min=23 / scenecut=40 / intra_refresh=0 / rc_lookahead=40 / rc=2pass / mbtree=1 / bitrate=4989 / ratetol=1.0 / qcomp=0.60 / qpmin=10 / qpmax=51 / qpstep=4 / cplxblur=20.0 / qblur=0.5 / vbv_maxrate=40000 / vbv_bufsize=40000 / nal_hrd=vbr / ip_ratio=1.40 / aq=1:1.00

Audio #1
ID                               : 2
Format                           : AC-3
Format/Info                      : Audio Coding 3
Mode extension                   : CM (complete main)
Codec ID                         : A_AC3
Duration                         : 1h 21mn
Bit rate mode                    : Constant
Bit rate                         : 448 Kbps
Channel(s)                       : 6 channels
Channel positions                : Front: L C R, Side: L R, LFE
Sampling rate                    : 48.0 KHz
Bit depth                        : 16 bits
Compression mode                 : Lossy
Stream size                      : 261 MiB (6%)
Title                            : Italian AC3 5.1 448 kbps - Pitt@Sk8
Language                         : Italian

Audio #2
ID                               : 3
Format                           : AC-3
Format/Info                      : Audio Coding 3
Mode extension                   : CM (complete main)
Codec ID                         : A_AC3
Duration                         : 1h 21mn
Bit rate mode                    : Constant
Bit rate                         : 448 Kbps
Channel(s)                       : 6 channels
Channel positions                : Front: L C R, Side: L R, LFE
Sampling rate                    : 48.0 KHz
Bit depth                        : 16 bits
Compression mode                 : Lossy
Stream size                      : 261 MiB (6%)
Title                            : English AC3 5.1 448 kbps - Pitt@Sk8
Language                         : English

Audio #3
ID                               : 4
Format                           : AC-3
Format/Info                      : Audio Coding 3
Mode extension                   : CM (complete main)
Codec ID                         : A_AC3
Duration                         : 1h 21mn
Bit rate mode                    : Constant
Bit rate                         : 448 Kbps
Channel(s)                       : 6 channels
Channel positions                : Front: L C R, Side: L R, LFE
Sampling rate                    : 48.0 KHz
Bit depth                        : 16 bits
Compression mode                 : Lossy
Stream size                      : 261 MiB (6%)
Title                            : Spanish AC3 5.1 448 kbps - Pitt@Sk8
Language                         : Spanish

Audio #4
ID                               : 5
Format                           : AC-3
Format/Info                      : Audio Coding 3
Mode extension                   : CM (complete main)
Codec ID                         : A_AC3
Duration                         : 1h 21mn
Bit rate mode                    : Constant
Bit rate                         : 448 Kbps
Channel(s)                       : 6 channels
Channel positions                : Front: L C R, Side: L R, LFE
Sampling rate                    : 48.0 KHz
Bit depth                        : 16 bits
Compression mode                 : Lossy
Stream size                      : 261 MiB (6%)
Title                            : French AC3 5.1 448 kbps - Pitt@Sk8
Language                         : French

Audio #5
ID                               : 6
Format                           : AC-3
Format/Info                      : Audio Coding 3
Mode extension                   : CM (complete main)
Codec ID                         : A_AC3
Duration                         : 1h 21mn
Bit rate mode                    : Constant
Bit rate                         : 448 Kbps
Channel(s)                       : 6 channels
Channel positions                : Front: L C R, Side: L R, LFE
Sampling rate                    : 48.0 KHz
Bit depth                        : 16 bits
Compression mode                 : Lossy
Stream size                      : 261 MiB (6%)
Title                            : German AC3 5.1 448 kbps - Pitt@Sk8
Language                         : German

Audio #6
ID                               : 7
Format                           : AC-3
Format/Info                      : Audio Coding 3
Mode extension                   : CM (complete main)
Codec ID                         : A_AC3
Duration                         : 1h 21mn
Bit rate mode                    : Constant
Bit rate                         : 448 Kbps
Channel(s)                       : 6 channels
Channel positions                : Front: L C R, Side: L R, LFE
Sampling rate                    : 48.0 KHz
Bit depth                        : 16 bits
Compression mode                 : Lossy
Stream size                      : 261 MiB (6%)
Title                            : Japanese AC3 5.1 448 kbps - Pitt@Sk8
Language                         : Japanese

Text #1
ID                               : 8
Format                           : UTF-8
Codec ID                         : S_TEXT/UTF8
Codec ID/Info                    : UTF-8 Plain Text
Title                            : Cartelli SRT - Italiano
Language                         : Italian

Text #2
ID                               : 9
Format                           : VobSub
Muxing mode                      : zlib
Codec ID                         : S_VOBSUB
Codec ID/Info                    : The same subtitle format used on DVDs
Title                            : Cartelli - Italiano
Language                         : Italian

Text #3
ID                               : 10
Format                           : VobSub
Muxing mode                      : zlib
Codec ID                         : S_VOBSUB
Codec ID/Info                    : The same subtitle format used on DVDs
Title                            : Sottotitoli - Italiano per non udenti
Language                         : Italian

Text #4
ID                               : 11
Format                           : VobSub
Muxing mode                      : zlib
Codec ID                         : S_VOBSUB
Codec ID/Info                    : The same subtitle format used on DVDs
Title                            : Subtitle - English [deaf]
Language                         : English

Text #5
ID                               : 12
Format                           : VobSub
Muxing mode                      : zlib
Codec ID                         : S_VOBSUB
Codec ID/Info                    : The same subtitle format used on DVDs
Title                            : Cartelli - Spanish
Language                         : Spanish

Text #6
ID                               : 13
Format                           : VobSub
Muxing mode                      : zlib
Codec ID                         : S_VOBSUB
Codec ID/Info                    : The same subtitle format used on DVDs
Title                            : Subtitle - Spanish
Language                         : Spanish

Text #7
ID                               : 14
Format                           : VobSub
Muxing mode                      : zlib
Codec ID                         : S_VOBSUB
Codec ID/Info                    : The same subtitle format used on DVDs
Title                            : Cartelli - French
Language                         : French

Text #8
ID                               : 15
Format                           : VobSub
Muxing mode                      : zlib
Codec ID                         : S_VOBSUB
Codec ID/Info                    : The same subtitle format used on DVDs
Title                            : Subtitle - French
Language                         : French

Text #9
ID                               : 16
Format                           : VobSub
Muxing mode                      : zlib
Codec ID                         : S_VOBSUB
Codec ID/Info                    : The same subtitle format used on DVDs
Title                            : Subtitle - German [deaf]
Language                         : German

Text #10
ID                               : 17
Format                           : VobSub
Muxing mode                      : zlib
Codec ID                         : S_VOBSUB
Codec ID/Info                    : The same subtitle format used on DVDs
Title                            : Subtitle - Dutch
Language                         : Dutch

Text #11
ID                               : 18
Format                           : VobSub
Muxing mode                      : zlib
Codec ID                         : S_VOBSUB
Codec ID/Info                    : The same subtitle format used on DVDs
Title                            : Cartelli - Japanese
Language                         : Japanese

Text #12
ID                               : 19
Format                           : VobSub
Muxing mode                      : zlib
Codec ID                         : S_VOBSUB
Codec ID/Info                    : The same subtitle format used on DVDs
Title                            : Subtitle - Japanese
Language                         : Japanese

Menu
00:00:00.000                     : en:Jonah Hex -1- Pitt@Sk8
00:10:24.833                     : en:Jonah Hex -2- Pitt@Sk8
00:21:43.385                     : en:Jonah Hex -3- Pitt@Sk8
00:31:52.702                     : en:Jonah Hex -4- Pitt@Sk8
00:40:15.079                     : en:Jonah Hex -5- Pitt@Sk8
00:50:28.442                     : en:Jonah Hex -6- Pitt@Sk8
01:01:28.268                     : en:Jonah Hex -7- Pitt@Sk8
01:11:08.264                     : en:Jonah Hex -8- Pitt@Sk8
[/code]

Join www.nautilus-bt.org
